<?xml version="1.0" standalone="no"?> <!DOCTYPE svg PUBLIC "-//W3C//DTD SVG 1.0//EN" "http://www.w3.org/TR/2001/REC-SVG-20010904/DTD/svg10.dtd" > <svg xmlns="http://www.w3.org/2000/svg" width="100%" height="100%">
<defs >
<font id="DejaVuSerifCondensed" horiz-adv-x="944" ><font-face
    font-family="DejaVu Serif Condensed"
    units-per-em="2048"
    panose-1="2 6 6 6 5 6 5 2 2 4"
    ascent="1901"
    descent="-483"
    alphabetic="0" />
<missing-glyph horiz-adv-x="748" d="M68 0V1365H612V0H68ZM136 68H544V1297H136V68Z" />
<glyph unicode=" " glyph-name="space" horiz-adv-x="585" />
<glyph unicode="!" glyph-name="exclam" horiz-adv-x="740" d="M255 1493H487L426 672V420H315V672L255 1493ZM251 48T251 104T285 199T371 238Q420 238 455 199T490 104Q490 49 455 10T371 -29Q320 -29 286 9Z" />
<glyph unicode="&quot;" glyph-name="quotedbl" horiz-adv-x="847" d="M667 1493V938H524V1493H667ZM324 1493V938H181V1493H324Z" />
<glyph unicode="#" glyph-name="numbersign" horiz-adv-x="1544" d="M811 1470L719 1055H973L1066 1470H1220L1126 1055H1403V901H1091L1017 567H1300V414H983L890 0H735L830 414H575L482 0H328L420 414H142V567H455L529 901H245V1055H564L658 1470H811ZM938 901H684L608
567H865L938 901Z" />
<glyph unicode="$" glyph-name="dollar" horiz-adv-x="1172" d="M158 72V348H256Q259 211 327 141T531 68V553Q324 617 241 700T157 922Q157 1082 256 1179T531 1288V1556H621V1288Q712 1280 796 1256T960 1190V928H862Q851 1044 789 1111T621 1187V735Q842 668
931 582T1020 350Q1020 184 916 84T621 -31V-301H531V-31Q445 -29 352 -4T158 72ZM531 1187Q438 1180 387 1128T336 987Q336 907 383 854T531 768V1187ZM621 68Q723 78 776 133T830 283Q830 369 777 429T621 520V68Z" />
<glyph unicode="%" glyph-name="percent" horiz-adv-x="1751" d="M411 1520Q554 1520 638 1411T723 1114Q723 925 639 816T411 707T185 816T102 1114Q102 1300 185 1410T411 1520ZM1228 1520H1364L524 -29H387L1228 1520ZM1340 784Q1482 784 1566 674T1650 377T1566
81T1340 -29Q1196 -29 1113 80T1029 377Q1029 565 1113 674T1340 784ZM1340 694Q1262 694 1218 610T1173 377Q1173 230 1218 147T1340 63Q1418 63 1462 146T1506 377Q1506 525 1462 609T1340 694ZM413 1427Q334 1427 290 1344T245 1112Q245 965 290 881T413 797T534
880T579 1112T535 1343T413 1427Z" />
<glyph unicode="&amp;" glyph-name="ampersand" horiz-adv-x="1640" d="M1553 0H1192L1069 145Q975 57 868 14T636 -29Q404 -29 268 103T132 461Q132 594 201 709T410 926Q364 987 342 1047T320 1174Q320 1333 423 1426T704 1520Q764 1520 844 1503T1029 1452V1194H927Q914
1301 857 1357T700 1413Q608 1413 550 1357T492 1210Q492 1149 523 1088Q553 1030 651 915L1115 371Q1177 451 1212 543T1257 741H1095V848H1521V741H1366Q1351 611 1307 498T1187 289L1342 106H1553V0ZM995 231L472 844Q393 766 354 676T315 483Q315 317 418 205T677
92Q769 92 850 127T995 231Z" />
<glyph unicode="&apos;" glyph-name="quotesingle" horiz-adv-x="506" d="M324 1493V938H181V1493H324Z" />
<glyph unicode="(" glyph-name="parenleft" horiz-adv-x="719" d="M588 -319Q369 -210 258 26T146 618Q146 974 257 1210T588 1556V1458Q449 1352 389 1160T328 618Q328 270 388 78T588 -221V-319Z" />
<glyph unicode=")" glyph-name="parenright" horiz-adv-x="719" d="M130 -319V-221Q269 -115 330 77T391 618Q391 967 330 1159T130 1458V1556Q350 1447 461 1211T573 618Q573 263 462 27T130 -319Z" />
<glyph unicode="*" glyph-name="asterisk" horiz-adv-x="921" d="M892 1237L540 1055L892 870L824 752L510 969L522 588H400L411 969L98 752L30 870L382 1053L30 1237L98 1356L411 1139L400 1520H522L510 1139L824 1356L892 1237Z" />
<glyph unicode="+" glyph-name="plus" horiz-adv-x="1544" d="M844 1284V723H1349V561H844V0H700V561H195V723H700V1284H844Z" />
<glyph unicode="," glyph-name="comma" horiz-adv-x="585" d="M67 -199Q151 -130 190 -37T230 190V227H408Q400 56 335 -66T139 -279L67 -199Z" />
<glyph unicode="-" glyph-name="hyphen" horiz-adv-x="622" d="M81 627H542V471H81V627Z" />
<glyph unicode="." glyph-name="period" horiz-adv-x="585" d="M174 48T174 104T208 199T293 238Q343 238 378 199T413 104Q413 49 378 10T293 -29Q242 -29 208 9Z" />
<glyph unicode="/" glyph-name="slash" horiz-adv-x="621" d="M477 1493H621L144 -190H0L477 1493Z" />
<glyph unicode="0" glyph-name="zero" horiz-adv-x="1172" d="M586 -29Q367 -29 245 175T122 745Q122 1112 244 1316T586 1520Q806 1520 928 1316T1050 745Q1050 379 928 175T586 -29ZM448 70T586 70T792 238T860 745Q860 1085 792 1253T586 1421T380 1253T311
745Q311 406 379 238Z" />
<glyph unicode="1" glyph-name="one" horiz-adv-x="1172" d="M262 0V106H496V1348L225 1153V1284L553 1520H677V106H911V0H262Z" />
<glyph unicode="2" glyph-name="two" horiz-adv-x="1172" d="M236 1137H135V1403Q231 1460 329 1490T520 1520Q730 1520 851 1407T973 1100Q973 881 698 576L665 541L326 164H886V348H992V0H125V109L533 561Q668 711 725 836T783 1100Q783 1251 713 1336T518 1421Q389
1421 319 1350T236 1137Z" />
<glyph unicode="3" glyph-name="three" horiz-adv-x="1172" d="M179 1430Q284 1474 381 1497T562 1520Q760 1520 870 1426T981 1163Q981 1028 905 938T688 815Q853 789 944 682T1036 403Q1036 194 910 83T545 -29Q440 -29 340 -4T140 72V362H241Q250 218 328 144T549
70Q687 70 766 158T846 401Q846 577 764 667T524 758H438V860H483Q641 860 719 932T798 1151Q798 1282 734 1351T547 1421Q426 1421 359 1357T280 1167H179V1430Z" />
<glyph unicode="4" glyph-name="four" horiz-adv-x="1172" d="M1040 0H428V106H644V399H57V508L645 1520H824V506H1080V399H824V106H1040V0ZM644 506V1300L184 506H644Z" />
<glyph unicode="5" glyph-name="five" horiz-adv-x="1172" d="M927 1493V1329H311V901Q358 937 420 955T561 973Q778 973 904 839T1030 473Q1030 236 903 104T545 -29Q453 -29 356 -4T157 72V362H258Q266 220 339 145T545 70Q688 70 764 174T841 473Q841 667 765
770T545 874Q464 874 403 842T293 743H216V1493H927Z" />
<glyph unicode="6" glyph-name="six" horiz-adv-x="1172" d="M310 822Q371 897 448 934T623 971Q824 971 940 837T1057 471Q1057 244 932 108T596 -29Q368 -29 246 159T123 698Q123 1090 268 1305T677 1520Q748 1520 826 1505T986 1460V1214H885Q874 1315 816
1368T658 1421Q483 1421 398 1274T310 822ZM476 70T603 70T798 173T867 471T799 768T603 872Q474 872 407 772T339 483Q339 284 407 177Z" />
<glyph unicode="7" glyph-name="seven" horiz-adv-x="1172" d="M1040 1391L514 0H380L881 1329H260V1145H155V1493H1040V1391Z" />
<glyph unicode="8" glyph-name="eight" horiz-adv-x="1172" d="M724 795Q878 772 963 670T1048 408Q1048 198 929 85T586 -29Q364 -29 244 84T123 408Q123 567 208 669T448 795Q312 822 240 909T167 1133Q167 1313 279 1416T586 1520T892 1417T1004 1133Q1004
997 932 910T724 795ZM822 1133Q822 1269 760 1345T586 1421Q475 1421 413 1345T350 1133Q350 996 412 920T586 844Q698 844 760 920T822 1133ZM859 408Q859 568 788 656T586 745T385 657T313 408Q313 247 384 159T586 70T787 158T859 408Z" />
<glyph unicode="9" glyph-name="nine" horiz-adv-x="1172" d="M570 1421Q442 1421 374 1318T306 1020T374 722T570 618T765 718T833 1008Q833 1207 765 1314T570 1421ZM862 669Q802 594 724 557T547 520Q347 520 232 654T116 1020Q116 1247 241 1383T577 1520Q805
1520 926 1332T1048 793Q1048 401 904 186T496 -29Q425 -29 347 -14T186 31V279H287Q299 178 357 124T514 70Q688 70 774 216T862 669Z" />
<glyph unicode=":" glyph-name="colon" horiz-adv-x="621" d="M192 700T192 756T226 850T311 889Q363 889 397 851T431 756T397 661T311 623Q261 623 227 661ZM192 48T192 104T226 199T311 238Q362 238 396 199T431 104T397 10T311 -29Q260 -29 226 9Z" />
<glyph unicode=";" glyph-name="semicolon" horiz-adv-x="621" d="M195 700T195 756T230 850T315 889T400 850T435 756Q435 700 400 662T315 623T230 661ZM67 -199Q151 -130 190 -37T230 190V227H408Q400 56 335 -66T139 -279L67 -199Z" />
<glyph unicode="&lt;" glyph-name="less" horiz-adv-x="1544" d="M1349 1020L415 641L1349 264V94L195 559V725L1349 1190V1020Z" />
<glyph unicode="=" glyph-name="equal" horiz-adv-x="1544" d="M195 518H1349V358H195V518ZM195 926H1349V766H195V926Z" />
<glyph unicode="&gt;" glyph-name="greater" horiz-adv-x="1544" d="M195 1020V1190L1349 725V559L195 94V264L1130 641L195 1020Z" />
<glyph unicode="?" glyph-name="question" horiz-adv-x="988" d="M125 1427Q220 1474 306 1497T468 1520Q668 1520 783 1413T899 1124Q899 938 800 820T500 651V397H389V725Q548 768 628 869T709 1126Q709 1263 644 1342T464 1421Q362 1421 297 1356T212 1167H125V1427ZM324
48T324 104T358 199T445 238Q494 238 529 199T564 104Q564 49 529 10T445 -29Q393 -29 359 9Z" />
<glyph unicode="@" glyph-name="at" horiz-adv-x="1843" d="M1165 485V590Q1165 715 1101 792T932 870Q824 870 763 783T702 537Q702 378 763 291T934 203Q1037 203 1101 281T1165 485ZM1165 248Q1112 166 1046 126T896 86Q738 86 640 211T542 537T640 862T896
987Q979 987 1045 947T1165 825V967H1305V195Q1458 232 1542 357T1627 670Q1627 781 1597 880T1506 1063Q1410 1196 1273 1266T975 1337Q894 1337 815 1318T658 1260Q476 1167 375 979T274 543Q274 376 319 236Q364 96 450 -8Q549 -128 682 -190Q817 -252 973 -252Q1089
-252 1190 -214T1377 -100L1425 -170Q1328 -263 1205 -309T934 -356Q770 -356 620 -290T357 -100Q241 27 182 190T122 543Q122 727 182 890T357 1180Q472 1306 627 1374T957 1442Q1149 1442 1308 1359Q1466 1277 1574 1120Q1642 1021 1678 907Q1713 792 1713 668Q1713
400 1566 245T1166 86L1165 248Z" />
<glyph unicode="A" glyph-name="A" horiz-adv-x="1331" d="M-11 0V106H107L586 1493H737L1217 106H1349V0H860V106H1010L897 434H332L220 106H367V0H-11ZM369 541H862L616 1251L369 541Z" />
<glyph unicode="B" glyph-name="B" horiz-adv-x="1354" d="M102 0V106H273V1386H102V1493H765Q968 1493 1071 1401T1174 1124Q1174 991 1103 912T894 815Q1065 791 1153 694T1242 432Q1242 210 1116 105T723 0H102ZM455 862H684Q832 862 900 925T968 1124Q968
1261 900 1323T684 1386H455V862ZM455 106H724Q886 106 961 184T1036 432Q1036 601 962 678T724 756H455V106Z" />
<glyph unicode="C" glyph-name="C" horiz-adv-x="1410" d="M1300 395Q1240 186 1100 79T746 -29Q615 -29 503 21T302 168Q202 280 153 422T104 745Q104 1093 284 1306T761 1520Q871 1520 995 1488T1263 1391V1047H1161Q1128 1235 1028 1324T746 1413Q531 1413
421 1244T310 745Q310 417 420 248T746 78Q896 78 993 157T1134 395H1300Z" />
<glyph unicode="D" glyph-name="D" horiz-adv-x="1477" d="M102 0V106H273V1386H102V1493H636Q984 1493 1178 1296T1372 748Q1372 396 1178 198T636 0H102ZM455 106H623Q885 106 1025 272T1165 748T1026 1222T623 1386H455V106Z" />
<glyph unicode="E" glyph-name="E" horiz-adv-x="1345" d="M102 0V106H273V1386H102V1493H1184V1161H1073V1370H455V870H896V1057H1006V561H896V748H455V123H1087V332H1198V0H102Z" />
<glyph unicode="F" glyph-name="F" horiz-adv-x="1278" d="M102 0V106H273V1386H102V1493H1202V1161H1091V1370H455V870H914V1057H1025V561H914V748H455V106H670V0H102Z" />
<glyph unicode="G" glyph-name="G" horiz-adv-x="1472" d="M1180 1047Q1148 1234 1049 1323T770 1413Q538 1413 424 1247T310 745Q310 416 427 247T774 78Q876 78 968 106T1145 190V575H892V682H1328V125Q1208 48 1070 10T774 -29Q470 -29 287 182T104 745Q104
1099 287 1309T781 1520Q896 1520 1019 1491T1281 1401V1047H1180Z" />
<glyph unicode="H" glyph-name="H" horiz-adv-x="1607" d="M102 0V106H273V1386H102V1493H626V1386H455V870H1152V1386H981V1493H1506V1386H1335V106H1506V0H981V106H1152V748H455V106H626V0H102Z" />
<glyph unicode="I" glyph-name="I" horiz-adv-x="728" d="M455 106H626V0H102V106H273V1386H102V1493H626V1386H455V106Z" />
<glyph unicode="J" glyph-name="J" horiz-adv-x="738" d="M-155 -358V-123H-52Q-50 -222 -10 -270T109 -319Q216 -319 258 -244T301 49V1386H92V1493H654V1386H483V41Q483 -206 394 -316T107 -426Q43 -426 -23 -409T-155 -358Z" />
<glyph unicode="K" glyph-name="K" horiz-adv-x="1377" d="M102 0V106H273V1386H102V1493H626V1386H455V821L1034 1386H888V1493H1335V1386H1184L607 823L1252 106H1405V0H1093L455 709V106H626V0H102Z" />
<glyph unicode="L" glyph-name="L" horiz-adv-x="1224" d="M102 0V106H273V1386H102V1493H626V1386H455V123H1069V373H1180V0H102Z" />
<glyph unicode="M" glyph-name="M" horiz-adv-x="1887" d="M102 0V106H273V1386H92V1493H483L955 430L1426 1493H1794V1386H1615V106H1786V0H1261V106H1432V1260L971 219H844L383 1260V106H554V0H102Z" />
<glyph unicode="N" glyph-name="N" horiz-adv-x="1612" d="M90 0V106H271V1386H90V1493H435L1240 315V1386H1060V1493H1532V1386H1351V-29H1242L382 1229V106H562V0H90Z" />
<glyph unicode="O" glyph-name="O" horiz-adv-x="1511" d="M756 -29Q619 -29 505 21T302 168Q202 280 153 422T104 745T153 1068T302 1323Q391 1421 504 1470T756 1520Q1048 1520 1228 1307T1408 745Q1408 566 1359 423T1209 168Q1120 70 1007 21T756 -29ZM756
78Q976 78 1089 246T1202 745Q1202 1076 1089 1244T756 1413Q535 1413 423 1245T310 745Q310 415 422 247T756 78Z" />
<glyph unicode="P" glyph-name="P" horiz-adv-x="1240" d="M102 0V106H273V1386H102V1493H737Q939 1493 1056 1380T1174 1073Q1174 881 1057 767T737 653H455V106H663V0H102ZM455 760H693Q827 760 897 840T968 1073Q968 1226 898 1306T693 1386H455V760Z" />
<glyph unicode="Q" glyph-name="Q" horiz-adv-x="1511" d="M756 78Q976 78 1089 246T1202 745Q1202 1076 1089 1244T756 1413Q535 1413 423 1245T310 745Q310 415 422 247T756 78ZM778 -29Q469 -29 287 181T104 745Q104 926 153 1068T302 1323Q391 1421 504 1470T756
1520Q1048 1520 1228 1307T1408 745Q1408 449 1273 248T901 -12Q950 -79 1019 -111T1187 -143H1215V-328Q1063 -320 955 -246T778 -29Z" />
<glyph unicode="R" glyph-name="R" horiz-adv-x="1387" d="M455 801H721Q857 801 921 872T986 1094T922 1315T721 1386H455V801ZM883 741Q946 722 991 677T1073 549L1268 106H1432V0H1115L905 475Q843 614 794 654Q744 694 656 694H455V106H645V0H102V106H273V1386H102V1493H783Q979
1493 1085 1389T1192 1094Q1192 940 1115 852T883 741Z" />
<glyph unicode="S" glyph-name="S" horiz-adv-x="1262" d="M171 72V412L274 411Q279 241 363 160T619 78Q779 78 863 148T948 354Q948 462 897 520T682 633L505 692Q312 757 234 854T155 1120Q155 1310 276 1415T617 1520Q711 1520 822 1498T1060 1432V1114H958Q943
1272 864 1342T621 1413Q479 1413 405 1349T330 1161Q330 1054 386 993T623 872L789 817Q972 756 1050 662T1128 408Q1128 191 1003 81T630 -29Q519 -29 405 -4T171 72Z" />
<glyph unicode="T" glyph-name="T" horiz-adv-x="1229" d="M352 0V106H524V1374H129V1141H18V1493H1211V1141H1101V1374H706V106H878V0H352Z" />
<glyph unicode="U" glyph-name="U" horiz-adv-x="1553" d="M258 1386H86V1493H612V1386H440V614Q440 328 524 215T814 102Q1021 102 1105 215T1189 614V1386H1017V1493H1471V1386H1300V594Q1300 253 1182 112T781 -29Q499 -29 379 113T258 594V1386Z" />
<glyph unicode="V" glyph-name="V" horiz-adv-x="1331" d="M322 1386L719 240L1115 1386H964V1493H1358V1386H1228L748 0H593L116 1386H-18V1493H472V1386H322Z" />
<glyph unicode="W" glyph-name="W" horiz-adv-x="1894" d="M1405 0H1257L950 1214L642 0H494L142 1386H9V1493H500V1386H332L612 283L918 1493H1064L1375 270L1657 1386H1502V1493H1889V1386H1757L1405 0Z" />
<glyph unicode="X" glyph-name="X" horiz-adv-x="1312" d="M610 639L282 106H455V0H11V106H166L553 733L160 1386H16V1493H549V1386H391L679 905L975 1386H802V1493H1242V1386H1091L735 811L1159 106H1303V0H770V106H931L610 639Z" />
<glyph unicode="Y" glyph-name="Y" horiz-adv-x="1216" d="M348 0V106H520V643L105 1386H-21V1493H479V1386H322L658 782L994 1386H842V1493H1233V1386H1106L702 662V106H874V0H348Z" />
<glyph unicode="Z" glyph-name="Z" horiz-adv-x="1280" d="M83 0V72L920 1370H225V1147H114V1493H1176V1421L339 123H1099V332H1209V0H83Z" />
<glyph unicode="[" glyph-name="bracketleft" horiz-adv-x="719" d="M158 1556H577V1450H330V-164H577V-270H158V1556Z" />
<glyph unicode="\" glyph-name="backslash" horiz-adv-x="621" d="M144 1493L621 -190H477L0 1493H144Z" />
<glyph unicode="]" glyph-name="bracketright" horiz-adv-x="719" d="M561 1556V-270H142V-164H389V1450H142V1556H561Z" />
<glyph unicode="^" glyph-name="asciicircum" horiz-adv-x="1544" d="M860 1493L1349 936H1211L772 1317L334 936H195L684 1493H860Z" />
<glyph unicode="_" glyph-name="underscore" horiz-adv-x="921" d="M922 -403V-483H0V-403H922Z" />
<glyph unicode="`" glyph-name="grave" horiz-adv-x="921" d="M330 1636L564 1260H459L153 1636H330Z" />
<glyph unicode="a" glyph-name="a" horiz-adv-x="1098" d="M899 664V106H1047V0H734V115Q679 41 607 6T438 -29Q279 -29 186 65T92 319Q92 484 199 575T501 666H734V739Q734 860 668 926T482 993Q382 993 324 943T251 795H166V1010Q252 1051 333 1071T492 1092Q691
1092 795 983T899 664ZM734 334V559H520Q397 559 337 500T276 319Q276 208 337 143T503 78T670 149T734 334Z" />
<glyph unicode="b" glyph-name="b" horiz-adv-x="1179" d="M378 479Q378 287 444 187T636 86Q763 86 828 199T894 532Q894 753 829 865T636 977Q510 977 444 876T378 584V479ZM212 106V1450H53V1556H378V897Q427 997 502 1044T688 1092Q864 1092 975 937T1087
532T976 127T688 -29Q577 -29 502 18T378 166V0H53V106H212Z" />
<glyph unicode="c" glyph-name="c" horiz-adv-x="1032" d="M948 319Q913 149 813 60T554 -29Q346 -29 219 124T92 532Q92 787 219 939T554 1092Q645 1092 735 1069T916 997V725H820Q801 865 738 929T556 993Q422 993 354 878T285 532T353 186T556 70Q663 70 727
132T814 319H948Z" />
<glyph unicode="d" glyph-name="d" horiz-adv-x="1179" d="M802 479V584Q802 775 736 876T544 977Q416 977 351 865T285 532Q285 312 350 199T544 86Q670 86 736 186T802 479ZM968 106H1126V0H802V166Q753 66 678 19T492 -29Q316 -29 204 126T92 532T203 937T492
1092Q603 1092 678 1045T802 897V1450H645V1556H968V106Z" />
<glyph unicode="e" glyph-name="e" horiz-adv-x="1090" d="M804 618Q798 804 733 898T545 993Q431 993 366 898T285 618H804ZM999 512H285V504Q285 289 358 180T573 70Q682 70 752 133T850 322H983Q943 147 837 59T556 -29Q346 -29 219 124T92 532Q92 784 217
938T545 1092Q762 1092 878 944T999 512Z" />
<glyph unicode="f" glyph-name="f" horiz-adv-x="682" d="M793 1305H706Q705 1380 668 1419T559 1458Q466 1458 429 1402T391 1200V1063H658V956H391V106H603V0H67V106H225V956H67V1063H225V1196Q225 1374 308 1465T553 1556Q613 1556 673 1544T793 1507V1305Z" />
<glyph unicode="g" glyph-name="g" horiz-adv-x="1179" d="M802 584Q802 775 736 876T544 977Q416 977 351 865T285 532Q285 312 350 199T544 86Q670 86 736 186T802 479V584ZM968 956V23Q968 -206 855 -330T531 -455Q436 -455 350 -436T184 -379V-156H271Q287
-260 347 -308T520 -356Q666 -356 734 -265T802 23V166Q753 66 678 19T492 -29Q316 -29 204 126T92 532T203 937T492 1092Q603 1092 678 1045T802 897V1063H1126V956H968Z" />
<glyph unicode="h" glyph-name="h" horiz-adv-x="1187" d="M76 0V106H225V1450H67V1556H391V874Q436 982 509 1037T680 1092Q839 1092 913 991T988 676V106H1136V0H679V106H822V618Q822 813 779 884T626 956Q511 956 451 863T391 592V106H535V0H76Z" />
<glyph unicode="i" glyph-name="i" horiz-adv-x="589" d="M391 106H547V0H67V106H225V956H67V1063H391V106ZM179 1393Q179 1439 209 1473T282 1507Q323 1507 353 1473T383 1393Q383 1346 354 1313T282 1280Q239 1280 209 1313T179 1393Z" />
<glyph unicode="j" glyph-name="j" horiz-adv-x="571" d="M225 956H68V1063H391V-104Q391 -268 303 -361T61 -455Q-4 -455 -63 -439T-177 -389V-170H-92Q-86 -266 -48 -311T65 -356Q147 -356 186 -295T225 -104V956ZM184 1393Q184 1439 214 1473T287 1507Q328
1507 358 1473T389 1393Q389 1346 360 1313T287 1280Q245 1280 215 1313T184 1393Z" />
<glyph unicode="k" glyph-name="k" horiz-adv-x="1116" d="M527 0H63V106H212V1450H53V1556H378V543L781 956H644V1063H1076V956H913L628 664L992 106H1130V0H658V106H795L508 543L378 408V106H527V0Z" />
<glyph unicode="l" glyph-name="l" horiz-adv-x="589" d="M378 106H535V0H53V106H212V1450H53V1556H378V106Z" />
<glyph unicode="m" glyph-name="m" horiz-adv-x="1747" d="M955 856Q1003 973 1077 1032T1250 1092Q1400 1092 1474 989T1548 676V106H1697V0H1238V106H1382V655Q1382 818 1339 887T1196 956Q1085 956 1027 863T969 592V106H1113V0H660V106H804V662Q804 821 761
888T617 956Q507 956 449 863T391 592V106H535V0H76V106H225V958H67V1063H391V874Q436 980 507 1036T669 1092Q780 1092 855 1031T955 856Z" />
<glyph unicode="n" glyph-name="n" horiz-adv-x="1187" d="M76 0V106H225V956H67V1063H391V874Q436 982 509 1037T680 1092Q839 1092 913 991T988 676V106H1136V0H679V106H822V618Q822 813 779 885T626 958Q511 958 451 865T391 592V106H535V0H76Z" />
<glyph unicode="o" glyph-name="o" horiz-adv-x="1109" d="M554 -29Q346 -29 219 124T92 532T218 939T554 1092Q764 1092 890 939T1017 532T891 125T554 -29ZM554 70Q688 70 756 187T824 532T756 876T554 993Q421 993 353 877T285 532T353 187T554 70Z" />
<glyph unicode="p" glyph-name="p" horiz-adv-x="1179" d="M212 956H53V1063H378V897Q427 997 502 1044T688 1092Q864 1092 975 937T1087 532T976 127T688 -29Q577 -29 502 18T378 166V-319H535V-426H53V-319H212V956ZM378 584V479Q378 287 444 187T636 86Q763
86 828 199T894 532Q894 753 829 865T636 977Q510 977 444 876T378 584Z" />
<glyph unicode="q" glyph-name="q" horiz-adv-x="1179" d="M802 584Q802 775 736 876T544 977Q416 977 351 865T285 532Q285 312 350 199T544 86Q670 86 736 186T802 479V584ZM968 956V-319H1126V-426H645V-319H802V166Q753 66 678 19T492 -29Q316 -29 204 126T92
532T203 937T492 1092Q603 1092 678 1045T802 897V1063H1126V956H968Z" />
<glyph unicode="r" glyph-name="r" horiz-adv-x="881" d="M881 1065V799H786Q781 878 746 917T644 956Q521 956 456 862T391 592V106H582V0H76V106H225V958H67V1063H391V874Q439 985 515 1038T702 1092Q742 1092 787 1085T881 1065Z" />
<glyph unicode="s" glyph-name="s" horiz-adv-x="945" d="M104 59V307H199Q202 188 265 129T454 70Q565 70 623 116T682 252Q682 322 640 365T459 457L339 502Q216 546 161 612T105 780Q105 926 201 1009T468 1092Q544 1092 627 1070T800 1006V774H705Q701 877
640 935T473 993Q369 993 316 952T262 829Q262 762 302 722T464 639L596 594Q732 547 791 477T851 295Q851 144 748 58T461 -29Q368 -29 280 -7T104 59Z" />
<glyph unicode="t" glyph-name="t" horiz-adv-x="740" d="M199 956H53V1063H199V1393H365V1063H677V956H365V281Q365 146 388 108T475 70Q540 70 569 112T601 250H726Q719 105 655 38T461 -29Q318 -29 259 41T199 281V956Z" />
<glyph unicode="u" glyph-name="u" horiz-adv-x="1187" d="M652 1063H962V106H1119V0H796V188Q751 82 678 27T508 -29Q349 -29 274 71T199 387V956H50V1063H365V444Q365 250 408 178T561 106Q676 106 736 200T796 473V956H652V1063Z" />
<glyph unicode="v" glyph-name="v" horiz-adv-x="1041" d="M455 0L104 956H-5V1063H435V956H282L551 225L820 956H677V1063H1036V956H929L577 0H455Z" />
<glyph unicode="w" glyph-name="w" horiz-adv-x="1577" d="M885 1063L1130 233L1346 956H1207V1063H1553V956H1447L1163 0H1025L789 795L553 0H420L137 956H30V1063H463V956H308L522 233L769 1063H885Z" />
<glyph unicode="x" glyph-name="x" horiz-adv-x="1039" d="M536 649L737 956H608V1063H976V956H850L593 563L892 106H1017V0H575V106H697L489 424L280 106H404V0H40V106H167L431 510L140 956H22V1063H450V956H336L536 649Z" />
<glyph unicode="y" glyph-name="y" horiz-adv-x="1041" d="M398 -195L461 -18L104 956H-5V1063H435V956H282L551 225L820 956H677V1063H1036V956H929L490 -240Q446 -364 391 -409T236 -455Q194 -455 149 -447T59 -424V-221H144Q149 -289 175 -318T255 -348Q304
-348 334 -318T398 -195Z" />
<glyph unicode="z" glyph-name="z" horiz-adv-x="971" d="M74 0V86L673 956H199V772H104V1063H886V977L287 106H807V299H904V0H74Z" />
<glyph unicode="{" glyph-name="braceleft" horiz-adv-x="1172" d="M942 -229V-334H886Q662 -334 586 -260T510 35V293Q510 443 462 501T285 559H230V664H285Q413 664 461 722T510 930V1188Q510 1409 586 1482T886 1556H942V1452H881Q754 1452 716 1408T677 1223V936Q677
778 632 710T470 612Q589 578 633 511T677 287V0Q677 -141 715 -185T881 -229H942Z" />
<glyph unicode="|" glyph-name="bar" horiz-adv-x="621" d="M383 1565V-483H238V1565H383Z" />
<glyph unicode="}" glyph-name="braceright" horiz-adv-x="1172" d="M230 -229H293Q419 -229 457 -186T496 0V287Q496 444 540 511T702 612Q585 642 541 710T496 936V1223Q496 1365 458 1408T293 1452H230V1556H287Q511 1556 586 1483T662 1188V930Q662 780 710
722T886 664H942V559H886Q759 559 711 501T662 293V35Q662 -186 587 -260T287 -334H230V-229Z" />
<glyph unicode="~" glyph-name="asciitilde" horiz-adv-x="1544" d="M1349 807V659Q1259 571 1178 529T1013 487Q927 487 770 553L761 557L732 570Q599 627 514 627Q431 627 353 591T195 477V629Q285 716 365 756T531 797Q617 797 774 731L783 727Q793 723 811
715Q942 657 1029 657Q1112 657 1191 694T1349 807Z" />
<glyph unicode="&#xa0;" glyph-name="nbspace" horiz-adv-x="585" />
<glyph unicode="&#xa1;" glyph-name="exclamdown" horiz-adv-x="740" d="M255 0L315 821V1073H426V821L487 0H255ZM251 1333T251 1389T285 1483T371 1522Q420 1522 455 1483T490 1389Q490 1333 455 1294T371 1255Q320 1255 286 1294Z" />
<glyph unicode="&#xa2;" glyph-name="cent" horiz-adv-x="1172" d="M994 319Q962 165 878 79T656 -27V-297H566V-27Q368 -8 254 142T139 532Q139 774 253 923T566 1090V1356H656V1090Q739 1082 814 1059T962 997V725H867Q850 848 798 913T656 991V72Q737 84 789
147T860 319H994ZM566 991Q450 976 392 861T334 532Q334 317 392 202T566 72V991Z" />
<glyph unicode="&#xa3;" glyph-name="sterling" horiz-adv-x="1172" d="M992 1225H897Q888 1320 838 1370T700 1421Q586 1421 532 1344T477 1102V807H848V700H477V121H907V348H1012V0H123V106H297V700H123V807H297V1102Q297 1307 400 1413T702 1520Q778 1520 851
1508T992 1470V1225Z" />
<glyph unicode="&#xa5;" glyph-name="yen" horiz-adv-x="1172" d="M324 0V106H496V473H132V578H496V643L422 784H132V889H369L111 1386H-14V1493H483V1386H326L634 782L940 1386H789V1493H1178V1386H1050L795 889H1040V784H741L677 662V578H1040V473H677V106H848V0H324Z" />
<glyph unicode="&#xa7;" glyph-name="section" horiz-adv-x="921" d="M746 1464V1262H663Q662 1334 615 1375T489 1417Q399 1417 347 1369T295 1237Q295 1140 517 1003L551 981Q729 867 782 797Q839 722 839 623Q839 528 792 465T642 358Q712 311 745 248T778
94Q778 -37 686 -116T438 -195Q357 -195 285 -182T144 -139V70L227 69Q229 -11 277 -51T422 -92Q516 -92 570 -43T625 90Q625 203 419 330L391 348Q196 470 140 545T83 719Q83 813 136 879T287 977Q213 1026 178 1089T142 1231Q142 1361 232 1440T472 1520Q542
1520 610 1506T746 1464ZM341 936Q280 890 255 849T230 754Q230 622 557 419L586 401Q638 439 664 487T691 592Q691 667 629 734T341 936Z" />
<glyph unicode="&#xa8;" glyph-name="dieresis" horiz-adv-x="921" d="M593 1569T636 1569T710 1535T741 1452Q741 1401 711 1368T636 1335Q590 1335 561 1368T531 1452Q531 1500 562 1534ZM285 1569Q328 1569 359 1535T391 1452Q391 1401 361 1368T285 1335Q240
1335 211 1368T181 1452Q181 1500 212 1534T285 1569Z" />
<glyph unicode="&#xa9;" glyph-name="copyright" horiz-adv-x="1843" d="M1040 1382T922 1382T702 1335Q601 1288 516 1194Q432 1100 389 986Q346 872 346 741Q346 611 389 498T516 291T702 150T922 102T1142 150Q1244 197 1329 291Q1413 385 1455 497Q1497 610
1497 741Q1497 874 1455 987T1329 1194Q1245 1288 1143 1335ZM922 1485Q1058 1485 1176 1430T1393 1266T1539 1026T1588 741Q1588 589 1540 459T1393 219T1177 55T922 0Q785 0 667 55T450 219T304 458T255 741Q255 895 303 1026T450 1266T666 1430T922 1485ZM1238
573Q1214 442 1133 372T923 301Q755 301 655 421T554 741Q554 942 655 1063T923 1184Q995 1184 1065 1166T1213 1108V895H1138Q1122 1004 1071 1055T925 1106Q818 1106 764 1015T709 741Q709 560 763 470T923 379Q1011 379 1061 426T1131 573H1238Z" />
<glyph unicode="&#xaa;" glyph-name="ordfeminine" horiz-adv-x="875" d="M149 639H778V535H149V639ZM621 997V1145H452Q357 1145 309 1105T260 987Q260 906 305 864T438 821Q521 821 571 869T621 997ZM754 1219V840H826V756H621V836Q578 785 522 761T387 737Q260
737 186 802T112 979Q112 1093 198 1157T436 1221H621V1266Q621 1350 569 1397T422 1444Q344 1444 298 1409T239 1305H171V1462Q240 1491 305 1505T429 1520Q589 1520 671 1443T754 1219Z" />
<glyph unicode="&#xab;" glyph-name="guillemotleft" horiz-adv-x="1127" d="M564 1059V944L297 600L564 256V141L142 559V641L564 1059ZM955 1059V944L688 600L955 256V141L533 559V641L955 1059Z" />
<glyph unicode="&#xac;" glyph-name="logicalnot" horiz-adv-x="1544" d="M195 862H1349V287H1205V700H195V862Z" />
<glyph unicode="&#xae;" glyph-name="registered" horiz-adv-x="1843" d="M922 1485Q1058 1485 1176 1430T1393 1266T1539 1026T1588 741Q1588 589 1540 459T1393 219T1177 55T922 0Q785 0 667 55T450 219T304 458T255 741Q255 895 303 1026T450 1266T666 1430T922
1485ZM1040 1382T922 1382T702 1335Q601 1288 516 1194Q432 1100 389 986Q346 872 346 741Q346 611 389 498T516 291T702 150T922 102T1142 150Q1244 197 1329 291Q1413 385 1455 497Q1497 610 1497 741Q1497 874 1455 987T1329 1194Q1245 1288 1143 1335ZM1027
754Q1065 740 1092 714Q1118 689 1136 649L1240 420H1309V352H1138L1020 606Q987 677 960 700Q932 723 888 723H806V420H881V352H596V420H670V1092H596V1159H969Q1084 1159 1143 1103T1202 938Q1202 855 1159 810T1027 754ZM806 791H918Q993 791 1030 829T1067
942Q1067 1016 1030 1054T918 1092H806V791Z" />
<glyph unicode="&#xaf;" glyph-name="overscore" horiz-adv-x="921" d="M192 1526H730V1378H192V1526Z" />
<glyph unicode="&#xb0;" glyph-name="degree" horiz-adv-x="921" d="M461 1520Q518 1520 571 1496T663 1425Q705 1380 725 1323T746 1200Q746 1068 663 977T459 885T257 975T176 1200Q176 1334 258 1427T461 1520ZM461 1382Q392 1382 346 1330T299 1200Q299 1124
345 1073T461 1022Q529 1022 576 1073T623 1200T575 1328T461 1382Z" />
<glyph unicode="&#xb1;" glyph-name="plusminus" horiz-adv-x="1544" d="M195 160H1349V0H195V160ZM844 1284V893H1349V731H844V340H700V731H195V893H700V1284H844Z" />
<glyph unicode="&#xb4;" glyph-name="acute" horiz-adv-x="921" d="M586 1638H765L459 1262H354L586 1638Z" />
<glyph unicode="&#xb5;" glyph-name="mu" horiz-adv-x="1197" d="M665 1063H975V104H1131V0H809V188Q762 82 696 27T549 -29Q498 -29 456 -11T378 43V-319H535V-426H53V-319H212V956H63V1063H378V444Q378 250 421 178T573 106Q688 106 748 200T809 473V956H665V1063Z" />
<glyph unicode="&#xb6;" glyph-name="paragraph" horiz-adv-x="1172" d="M570 1493H1054V1386H948V-197H851V1386H644V-197H547V649Q354 666 248 776T142 1071Q142 1261 259 1377T570 1493Z" />
<glyph unicode="&#xb7;" glyph-name="middot" horiz-adv-x="585" d="M171 711Q171 767 205 805T292 844Q341 844 376 805T411 711Q411 655 376 617T292 578Q240 578 206 616T171 711Z" />
<glyph unicode="&#xb8;" glyph-name="cedilla" horiz-adv-x="921" d="M520 0Q578 -64 606 -120T634 -225Q634 -306 578 -350T420 -395Q382 -395 343 -389T262 -371V-240Q299 -257 334 -265T401 -274Q453 -274 482 -248T512 -176Q512 -148 492 -104T433 0H520Z" />
<glyph unicode="&#xba;" glyph-name="ordmasculine" horiz-adv-x="866" d="M123 639H742V535H123V639ZM591 737T433 737T180 844T85 1128Q85 1305 180 1412T433 1520Q590 1520 685 1413T781 1128T686 844ZM338 813T433 813T576 892T625 1128T576 1364T433 1444T290
1363T241 1128Q241 973 289 893Z" />
<glyph unicode="&#xbb;" glyph-name="guillemotright" horiz-adv-x="1127" d="M174 1059L596 641V559L174 141V256L440 600L174 944V1059ZM564 1059L986 641V559L564 141V256L832 600L564 944V1059Z" />
<glyph unicode="&#xbf;" glyph-name="questiondown" horiz-adv-x="988" d="M899 66Q804 19 719 -4T556 -27Q357 -27 241 80T125 369Q125 555 225 673T526 842V1096H636V768Q477 725 396 624T315 367Q315 230 381 151T561 72Q662 72 728 137T813 326H899V66ZM700
1445T700 1389T666 1294T580 1255Q531 1255 496 1294T461 1389Q461 1444 496 1483T580 1522Q632 1522 666 1484Z" />
<glyph unicode="&#xc0;" glyph-name="Agrave" horiz-adv-x="1331" d="M602 1899L767 1635H662L426 1899H602ZM-11 0V106H107L586 1493H737L1217 106H1349V0H860V106H1010L897 434H332L220 106H367V0H-11ZM369 541H862L616 1251L369 541Z" />
<glyph unicode="&#xc1;" glyph-name="Aacute" horiz-adv-x="1331" d="M722 1899H899L663 1635H558L722 1899ZM-11 0V106H107L586 1493H737L1217 106H1349V0H860V106H1010L897 434H332L220 106H367V0H-11ZM369 541H862L616 1251L369 541Z" />
<glyph unicode="&#xc2;" glyph-name="Acircumflex" horiz-adv-x="1331" d="M586 1899H744L952 1635H848L665 1796L482 1635H378L586 1899ZM-11 0V106H107L586 1493H737L1217 106H1349V0H860V106H1010L897 434H332L220 106H367V0H-11ZM369 541H862L616 1251L369 541Z" />
<glyph unicode="&#xc3;" glyph-name="Atilde" horiz-adv-x="1331" d="M654 1715L610 1743Q592 1756 574 1763T540 1770Q505 1770 482 1742T455 1667L368 1668Q370 1768 416 1827T538 1886Q571 1886 598 1877T676 1837L720 1811Q741 1798 760 1791T796 1784Q833
1784 854 1811T875 1886H962Q960 1781 914 1724T783 1667Q723 1667 658 1712L654 1715ZM-11 0V106H107L586 1493H737L1217 106H1349V0H860V106H1010L897 434H332L220 106H367V0H-11ZM369 541H862L616 1251L369 541Z" />
<glyph unicode="&#xc4;" glyph-name="Adieresis" horiz-adv-x="1331" d="M447 1884T490 1884T564 1849T595 1768Q595 1718 565 1685T490 1651Q446 1651 416 1684T385 1768Q385 1814 416 1849ZM841 1884Q883 1884 914 1849T945 1768Q945 1718 915 1685T841 1651Q796
1651 766 1684T735 1768Q735 1814 766 1849T841 1884ZM-11 0V106H107L586 1493H737L1217 106H1349V0H860V106H1010L897 434H332L220 106H367V0H-11ZM369 541H862L616 1251L369 541Z" />
<glyph unicode="&#xc5;" glyph-name="Aring" horiz-adv-x="1331" d="M-11 0V106H107L547 1384Q482 1421 449 1482T415 1626Q415 1740 487 1820T662 1901Q764 1901 836 1821T909 1626Q909 1546 874 1483T774 1384L1217 106H1349V0H860V106H1010L897 434H332L220
106H367V0H-11ZM369 541H860L616 1251L369 541ZM798 1563T798 1626T758 1733T662 1778Q604 1778 565 1735T526 1626Q526 1563 565 1519T662 1475Q718 1475 758 1519Z" />
<glyph unicode="&#xc6;" glyph-name="AE" horiz-adv-x="1845" d="M652 0V106H824V434H339L202 106H350V0H-32V106H86L617 1386H424V1493H1734V1161H1624V1370H1004V870H1447V1057H1558V561H1447V748H1004V123H1639V332H1750V0H652ZM383 541H824V1386H734L383 541Z" />
<glyph unicode="&#xc7;" glyph-name="Ccedilla" horiz-adv-x="1410" d="M1300 395Q1240 186 1100 79T746 -29Q615 -29 503 21T302 168Q202 280 153 422T104 745Q104 1093 284 1306T761 1520Q871 1520 995 1488T1263 1391V1047H1161Q1128 1235 1028 1324T746 1413Q531
1413 421 1244T310 745Q310 417 420 248T746 78Q896 78 993 157T1134 395H1300ZM819 0Q877 -64 905 -120T933 -225Q933 -306 877 -350T719 -395Q681 -395 642 -389T561 -371V-240Q598 -257 633 -265T700 -274Q752 -274 781 -248T811 -176Q811 -148 791 -104T732
0H819Z" />
<glyph unicode="&#xc8;" glyph-name="Egrave" horiz-adv-x="1345" d="M610 1899L775 1635H670L434 1899H610ZM102 0V106H273V1386H102V1493H1184V1161H1073V1370H455V870H896V1057H1006V561H896V748H455V123H1087V332H1198V0H102Z" />
<glyph unicode="&#xc9;" glyph-name="Eacute" horiz-adv-x="1345" d="M730 1899H907L671 1635H566L730 1899ZM102 0V106H273V1386H102V1493H1184V1161H1073V1370H455V870H896V1057H1006V561H896V748H455V123H1087V332H1198V0H102Z" />
<glyph unicode="&#xca;" glyph-name="Ecircumflex" horiz-adv-x="1345" d="M594 1899H752L960 1635H856L673 1796L490 1635H386L594 1899ZM102 0V106H273V1386H102V1493H1184V1161H1073V1370H455V870H896V1057H1006V561H896V748H455V123H1087V332H1198V0H102Z" />
<glyph unicode="&#xcb;" glyph-name="Edieresis" horiz-adv-x="1345" d="M455 1884T498 1884T572 1849T603 1768Q603 1718 573 1685T498 1651Q454 1651 424 1684T393 1768Q393 1814 424 1849ZM849 1884Q891 1884 922 1849T953 1768Q953 1718 923 1685T849 1651Q804
1651 774 1684T743 1768Q743 1814 774 1849T849 1884ZM102 0V106H273V1386H102V1493H1184V1161H1073V1370H455V870H896V1057H1006V561H896V748H455V123H1087V332H1198V0H102Z" />
<glyph unicode="&#xcc;" glyph-name="Igrave" horiz-adv-x="728" d="M302 1899L467 1635H362L126 1899H302ZM455 106H626V0H102V106H273V1386H102V1493H626V1386H455V106Z" />
<glyph unicode="&#xcd;" glyph-name="Iacute" horiz-adv-x="728" d="M422 1899H599L363 1635H258L422 1899ZM455 106H626V0H102V106H273V1386H102V1493H626V1386H455V106Z" />
<glyph unicode="&#xce;" glyph-name="Icircumflex" horiz-adv-x="728" d="M286 1899H444L652 1635H548L365 1796L182 1635H78L286 1899ZM455 106H626V0H102V106H273V1386H102V1493H626V1386H455V106Z" />
<glyph unicode="&#xcf;" glyph-name="Idieresis" horiz-adv-x="728" d="M147 1884T190 1884T264 1849T295 1768Q295 1718 265 1685T190 1651Q146 1651 116 1684T85 1768Q85 1814 116 1849ZM541 1884Q583 1884 614 1849T645 1768Q645 1718 615 1685T541 1651Q496
1651 466 1684T435 1768Q435 1814 466 1849T541 1884ZM455 106H626V0H102V106H273V1386H102V1493H626V1386H455V106Z" />
<glyph unicode="&#xd1;" glyph-name="Ntilde" horiz-adv-x="1612" d="M796 1715L752 1743Q734 1756 716 1763T682 1770Q647 1770 624 1742T597 1667L510 1668Q512 1768 558 1827T680 1886Q713 1886 740 1877T818 1837L862 1811Q883 1798 902 1791T938 1784Q975
1784 996 1811T1017 1886H1104Q1102 1781 1056 1724T925 1667Q865 1667 800 1712L796 1715ZM90 0V106H271V1386H90V1493H435L1240 315V1386H1060V1493H1532V1386H1351V-29H1242L382 1229V106H562V0H90Z" />
<glyph unicode="&#xd2;" glyph-name="Ograve" horiz-adv-x="1511" d="M693 1899L858 1635H753L517 1899H693ZM756 -29Q619 -29 505 21T302 168Q202 280 153 422T104 745T153 1068T302 1323Q391 1421 504 1470T756 1520Q1048 1520 1228 1307T1408 745Q1408 566
1359 423T1209 168Q1120 70 1007 21T756 -29ZM756 78Q976 78 1089 246T1202 745Q1202 1076 1089 1244T756 1413Q535 1413 423 1245T310 745Q310 415 422 247T756 78Z" />
<glyph unicode="&#xd3;" glyph-name="Oacute" horiz-adv-x="1511" d="M813 1899H990L754 1635H649L813 1899ZM756 -29Q619 -29 505 21T302 168Q202 280 153 422T104 745T153 1068T302 1323Q391 1421 504 1470T756 1520Q1048 1520 1228 1307T1408 745Q1408 566
1359 423T1209 168Q1120 70 1007 21T756 -29ZM756 78Q976 78 1089 246T1202 745Q1202 1076 1089 1244T756 1413Q535 1413 423 1245T310 745Q310 415 422 247T756 78Z" />
<glyph unicode="&#xd4;" glyph-name="Ocircumflex" horiz-adv-x="1511" d="M677 1899H835L1043 1635H939L756 1796L573 1635H469L677 1899ZM756 -29Q619 -29 505 21T302 168Q202 280 153 422T104 745T153 1068T302 1323Q391 1421 504 1470T756 1520Q1048 1520
1228 1307T1408 745Q1408 566 1359 423T1209 168Q1120 70 1007 21T756 -29ZM756 78Q976 78 1089 246T1202 745Q1202 1076 1089 1244T756 1413Q535 1413 423 1245T310 745Q310 415 422 247T756 78Z" />
<glyph unicode="&#xd5;" glyph-name="Otilde" horiz-adv-x="1511" d="M745 1715L701 1743Q683 1756 665 1763T631 1770Q596 1770 573 1742T546 1667L459 1668Q461 1768 507 1827T629 1886Q662 1886 689 1877T767 1837L811 1811Q832 1798 851 1791T887 1784Q924
1784 945 1811T966 1886H1053Q1051 1781 1005 1724T874 1667Q814 1667 749 1712L745 1715ZM756 -29Q619 -29 505 21T302 168Q202 280 153 422T104 745T153 1068T302 1323Q391 1421 504 1470T756 1520Q1048 1520 1228 1307T1408 745Q1408 566 1359 423T1209 168Q1120
70 1007 21T756 -29ZM756 78Q976 78 1089 246T1202 745Q1202 1076 1089 1244T756 1413Q535 1413 423 1245T310 745Q310 415 422 247T756 78Z" />
<glyph unicode="&#xd6;" glyph-name="Odieresis" horiz-adv-x="1511" d="M538 1884T581 1884T655 1849T686 1768Q686 1718 656 1685T581 1651Q537 1651 507 1684T476 1768Q476 1814 507 1849ZM932 1884Q974 1884 1005 1849T1036 1768Q1036 1718 1006 1685T932
1651Q887 1651 857 1684T826 1768Q826 1814 857 1849T932 1884ZM756 -29Q619 -29 505 21T302 168Q202 280 153 422T104 745T153 1068T302 1323Q391 1421 504 1470T756 1520Q1048 1520 1228 1307T1408 745Q1408 566 1359 423T1209 168Q1120 70 1007 21T756 -29ZM756
78Q976 78 1089 246T1202 745Q1202 1076 1089 1244T756 1413Q535 1413 423 1245T310 745Q310 415 422 247T756 78Z" />
<glyph unicode="&#xd8;" glyph-name="Oslash" horiz-adv-x="1511" d="M1252 1276Q1330 1168 1369 1037T1408 745Q1408 400 1228 186T756 -29Q629 -29 522 14T324 143L160 -57L90 12L258 219Q180 324 142 454T104 745Q104 1091 284 1305T756 1520Q883 1520 991
1478T1185 1352L1346 1550L1418 1479L1252 1276ZM417 256Q474 167 559 123T756 78Q976 78 1089 246T1202 745Q1202 862 1187 960T1141 1141L417 256ZM1093 1239Q1034 1327 951 1370T756 1413Q535 1413 423 1245T310 745Q310 626 324 530T369 352L1093 1239Z" />
<glyph unicode="&#xd9;" glyph-name="Ugrave" horiz-adv-x="1553" d="M750 1899L915 1635H810L574 1899H750ZM258 1386H86V1493H612V1386H440V614Q440 328 524 215T814 102Q1021 102 1105 215T1189 614V1386H1017V1493H1471V1386H1300V594Q1300 253 1182 112T781
-29Q499 -29 379 113T258 594V1386Z" />
<glyph unicode="&#xda;" glyph-name="Uacute" horiz-adv-x="1553" d="M870 1899H1047L811 1635H706L870 1899ZM258 1386H86V1493H612V1386H440V614Q440 328 524 215T814 102Q1021 102 1105 215T1189 614V1386H1017V1493H1471V1386H1300V594Q1300 253 1182 112T781
-29Q499 -29 379 113T258 594V1386Z" />
<glyph unicode="&#xdb;" glyph-name="Ucircumflex" horiz-adv-x="1553" d="M734 1899H892L1100 1635H996L813 1796L630 1635H526L734 1899ZM258 1386H86V1493H612V1386H440V614Q440 328 524 215T814 102Q1021 102 1105 215T1189 614V1386H1017V1493H1471V1386H1300V594Q1300
253 1182 112T781 -29Q499 -29 379 113T258 594V1386Z" />
<glyph unicode="&#xdc;" glyph-name="Udieresis" horiz-adv-x="1553" d="M595 1884T638 1884T712 1849T743 1768Q743 1718 713 1685T638 1651Q594 1651 564 1684T533 1768Q533 1814 564 1849ZM989 1884Q1031 1884 1062 1849T1093 1768Q1093 1718 1063 1685T989
1651Q944 1651 914 1684T883 1768Q883 1814 914 1849T989 1884ZM258 1386H86V1493H612V1386H440V614Q440 328 524 215T814 102Q1021 102 1105 215T1189 614V1386H1017V1493H1471V1386H1300V594Q1300 253 1182 112T781 -29Q499 -29 379 113T258 594V1386Z" />
<glyph unicode="&#xdf;" glyph-name="germandbls" horiz-adv-x="1231" d="M846 1210Q839 1329 777 1393T607 1458Q488 1458 433 1394T378 1190V0H53V106H212V1186Q212 1362 315 1459T607 1556Q798 1556 898 1452T1010 1137H990Q860 1137 785 1083T709 936Q709
884 733 846T824 760L904 705Q1043 606 1096 521T1150 322Q1150 167 1046 69T776 -29Q699 -29 624 -11T477 43V276H575Q579 175 629 123T770 70Q870 70 927 130T985 295Q985 379 949 438Q914 494 807 569L730 623Q635 690 596 752Q556 817 556 899Q556 1021 632
1103T846 1210Z" />
<glyph unicode="&#xe0;" glyph-name="agrave" horiz-adv-x="1098" d="M899 664V106H1047V0H734V115Q679 41 607 6T438 -29Q279 -29 186 65T92 319Q92 484 199 575T501 666H734V739Q734 860 668 926T482 993Q382 993 324 943T251 795H166V1010Q252 1051 333 1071T492
1092Q691 1092 795 983T899 664ZM734 334V559H520Q397 559 337 500T276 319Q276 208 337 143T503 78T670 149T734 334ZM381 1636L615 1260H510L204 1636H381Z" />
<glyph unicode="&#xe1;" glyph-name="aacute" horiz-adv-x="1098" d="M899 664V106H1047V0H734V115Q679 41 607 6T438 -29Q279 -29 186 65T92 319Q92 484 199 575T501 666H734V739Q734 860 668 926T482 993Q382 993 324 943T251 795H166V1010Q252 1051 333 1071T492
1092Q691 1092 795 983T899 664ZM734 334V559H520Q397 559 337 500T276 319Q276 208 337 143T503 78T670 149T734 334ZM637 1638H816L510 1262H405L637 1638Z" />
<glyph unicode="&#xe2;" glyph-name="acircumflex" horiz-adv-x="1098" d="M899 664V106H1047V0H734V115Q679 41 607 6T438 -29Q279 -29 186 65T92 319Q92 484 199 575T501 666H734V739Q734 860 668 926T482 993Q382 993 324 943T251 795H166V1010Q252 1051 333
1071T492 1092Q691 1092 795 983T899 664ZM734 334V559H520Q397 559 337 500T276 319Q276 208 337 143T503 78T670 149T734 334ZM436 1638H587L799 1262H695L512 1522L329 1262H225L436 1638Z" />
<glyph unicode="&#xe3;" glyph-name="atilde" horiz-adv-x="1098" d="M899 664V106H1047V0H734V115Q679 41 607 6T438 -29Q279 -29 186 65T92 319Q92 484 199 575T501 666H734V739Q734 860 668 926T482 993Q382 993 324 943T251 795H166V1010Q252 1051 333 1071T492
1092Q691 1092 795 983T899 664ZM734 334V559H520Q397 559 337 500T276 319Q276 208 337 143T503 78T670 149T734 334ZM508 1370L457 1425Q433 1449 419 1456T387 1464Q349 1464 328 1425T301 1309H215Q217 1444 262 1517T390 1591Q425 1591 453 1577T515 1530L567
1475Q587 1452 602 1444T637 1436Q676 1436 697 1476T722 1591H809Q807 1456 761 1383T633 1309Q599 1309 570 1323T508 1370Z" />
<glyph unicode="&#xe4;" glyph-name="adieresis" horiz-adv-x="1098" d="M899 664V106H1047V0H734V115Q679 41 607 6T438 -29Q279 -29 186 65T92 319Q92 484 199 575T501 666H734V739Q734 860 668 926T482 993Q382 993 324 943T251 795H166V1010Q252 1051 333
1071T492 1092Q691 1092 795 983T899 664ZM734 334V559H520Q397 559 337 500T276 319Q276 208 337 143T503 78T670 149T734 334ZM644 1569T687 1569T761 1535T792 1452Q792 1401 762 1368T687 1335Q641 1335 612 1368T582 1452Q582 1500 613 1534ZM336 1569Q379
1569 410 1535T442 1452Q442 1401 412 1368T336 1335Q291 1335 262 1368T232 1452Q232 1500 263 1534T336 1569Z" />
<glyph unicode="&#xe5;" glyph-name="aring" horiz-adv-x="1098" d="M899 664V106H1047V0H734V115Q679 41 607 6T438 -29Q279 -29 186 65T92 319Q92 484 199 575T501 666H734V739Q734 860 668 926T482 993Q382 993 324 943T251 795H166V1010Q252 1051 333 1071T492
1092Q691 1092 795 983T899 664ZM734 334V559H520Q397 559 337 500T276 319Q276 208 337 143T503 78T670 149T734 334ZM649 1524Q649 1587 609 1631T512 1675Q453 1675 414 1632T375 1524Q375 1459 414 1416T512 1372Q569 1372 609 1416T649 1524ZM758 1639T758
1524T687 1329T512 1249Q408 1249 337 1329T265 1524T336 1718T512 1798Q615 1798 686 1719Z" />
<glyph unicode="&#xe6;" glyph-name="ae" horiz-adv-x="1732" d="M1445 618Q1440 804 1375 898T1187 993Q1073 993 1007 898T927 618H1445ZM832 150Q757 59 666 15T463 -29Q285 -29 189 62T92 319Q92 484 199 575T501 666H734V739Q734 859 669 926T489 993Q384
993 325 944T251 795H166V1010Q252 1051 333 1071T492 1092Q619 1092 706 1049T842 915Q909 1003 995 1047T1187 1092Q1404 1092 1520 943T1640 512H927V504Q927 289 999 180T1215 70Q1324 70 1393 133T1491 322H1624Q1585 147 1478 59T1198 -29Q1088 -29 995 16T832
150ZM734 334V559H520Q397 559 337 500T276 319Q276 208 337 143T503 78T670 149T734 334Z" />
<glyph unicode="&#xe7;" glyph-name="ccedilla" horiz-adv-x="1032" d="M948 319Q913 149 813 60T554 -29Q346 -29 219 124T92 532Q92 787 219 939T554 1092Q645 1092 735 1069T916 997V725H820Q801 865 738 929T556 993Q422 993 354 878T285 532T353 186T556
70Q663 70 727 132T814 319H948ZM610 0Q668 -64 696 -120T724 -225Q724 -306 668 -350T510 -395Q472 -395 433 -389T352 -371V-240Q389 -257 424 -265T491 -274Q543 -274 572 -248T602 -176Q602 -148 582 -104T523 0H610Z" />
<glyph unicode="&#xe8;" glyph-name="egrave" horiz-adv-x="1090" d="M804 618Q798 804 733 898T545 993Q431 993 366 898T285 618H804ZM999 512H285V504Q285 289 358 180T573 70Q682 70 752 133T850 322H983Q943 147 837 59T556 -29Q346 -29 219 124T92 532Q92
784 217 938T545 1092Q762 1092 878 944T999 512ZM415 1636L649 1260H544L238 1636H415Z" />
<glyph unicode="&#xe9;" glyph-name="eacute" horiz-adv-x="1090" d="M804 618Q798 804 733 898T545 993Q431 993 366 898T285 618H804ZM999 512H285V504Q285 289 358 180T573 70Q682 70 752 133T850 322H983Q943 147 837 59T556 -29Q346 -29 219 124T92 532Q92
784 217 938T545 1092Q762 1092 878 944T999 512ZM671 1638H850L544 1262H439L671 1638Z" />
<glyph unicode="&#xea;" glyph-name="ecircumflex" horiz-adv-x="1090" d="M804 618Q798 804 733 898T545 993Q431 993 366 898T285 618H804ZM999 512H285V504Q285 289 358 180T573 70Q682 70 752 133T850 322H983Q943 147 837 59T556 -29Q346 -29 219 124T92
532Q92 784 217 938T545 1092Q762 1092 878 944T999 512ZM470 1638H621L833 1262H729L546 1522L363 1262H259L470 1638Z" />
<glyph unicode="&#xeb;" glyph-name="edieresis" horiz-adv-x="1090" d="M804 618Q798 804 733 898T545 993Q431 993 366 898T285 618H804ZM999 512H285V504Q285 289 358 180T573 70Q682 70 752 133T850 322H983Q943 147 837 59T556 -29Q346 -29 219 124T92 532Q92
784 217 938T545 1092Q762 1092 878 944T999 512ZM678 1569T721 1569T795 1535T826 1452Q826 1401 796 1368T721 1335Q675 1335 646 1368T616 1452Q616 1500 647 1534ZM370 1569Q413 1569 444 1535T476 1452Q476 1401 446 1368T370 1335Q325 1335 296 1368T266
1452Q266 1500 297 1534T370 1569Z" />
<glyph unicode="&#xec;" glyph-name="igrave" horiz-adv-x="589" d="M391 106H547V0H67V106H225V956H67V1063H391V106ZM164 1636L398 1260H293L-13 1636H164Z" />
<glyph unicode="&#xed;" glyph-name="iacute" horiz-adv-x="589" d="M391 106H547V0H67V106H225V956H67V1063H391V106ZM420 1638H599L293 1262H188L420 1638Z" />
<glyph unicode="&#xee;" glyph-name="icircumflex" horiz-adv-x="589" d="M391 106H547V0H67V106H225V956H67V1063H391V106ZM219 1638H370L582 1262H478L295 1522L112 1262H8L219 1638Z" />
<glyph unicode="&#xef;" glyph-name="idieresis" horiz-adv-x="589" d="M391 106H547V0H67V106H225V956H67V1063H391V106ZM427 1569T470 1569T544 1535T575 1452Q575 1401 545 1368T470 1335Q424 1335 395 1368T365 1452Q365 1500 396 1534ZM119 1569Q162 1569
193 1535T225 1452Q225 1401 195 1368T119 1335Q74 1335 45 1368T15 1452Q15 1500 46 1534T119 1569Z" />
<glyph unicode="&#xf1;" glyph-name="ntilde" horiz-adv-x="1187" d="M76 0V106H225V956H67V1063H391V874Q436 982 509 1037T680 1092Q839 1092 913 991T988 676V106H1136V0H679V106H822V618Q822 813 779 885T626 958Q511 958 451 865T391 592V106H535V0H76ZM589
1370L538 1425Q514 1449 500 1456T468 1464Q430 1464 409 1425T382 1309H296Q298 1444 343 1517T471 1591Q506 1591 534 1577T596 1530L648 1475Q668 1452 683 1444T718 1436Q757 1436 778 1476T803 1591H890Q888 1456 842 1383T714 1309Q680 1309 651 1323T589
1370Z" />
<glyph unicode="&#xf2;" glyph-name="ograve" horiz-adv-x="1109" d="M554 -29Q346 -29 219 124T92 532T218 939T554 1092Q764 1092 890 939T1017 532T891 125T554 -29ZM554 70Q688 70 756 187T824 532T756 876T554 993Q421 993 353 877T285 532T353 187T554 70ZM424
1636L658 1260H553L247 1636H424Z" />
<glyph unicode="&#xf3;" glyph-name="oacute" horiz-adv-x="1109" d="M554 -29Q346 -29 219 124T92 532T218 939T554 1092Q764 1092 890 939T1017 532T891 125T554 -29ZM554 70Q688 70 756 187T824 532T756 876T554 993Q421 993 353 877T285 532T353 187T554 70ZM680
1638H859L553 1262H448L680 1638Z" />
<glyph unicode="&#xf4;" glyph-name="ocircumflex" horiz-adv-x="1109" d="M554 -29Q346 -29 219 124T92 532T218 939T554 1092Q764 1092 890 939T1017 532T891 125T554 -29ZM554 70Q688 70 756 187T824 532T756 876T554 993Q421 993 353 877T285 532T353 187T554
70ZM479 1638H630L842 1262H738L555 1522L372 1262H268L479 1638Z" />
<glyph unicode="&#xf5;" glyph-name="otilde" horiz-adv-x="1109" d="M554 -29Q346 -29 219 124T92 532T218 939T554 1092Q764 1092 890 939T1017 532T891 125T554 -29ZM554 70Q688 70 756 187T824 532T756 876T554 993Q421 993 353 877T285 532T353 187T554 70ZM551
1370L500 1425Q476 1449 462 1456T430 1464Q392 1464 371 1425T344 1309H258Q260 1444 305 1517T433 1591Q468 1591 496 1577T558 1530L610 1475Q630 1452 645 1444T680 1436Q719 1436 740 1476T765 1591H852Q850 1456 804 1383T676 1309Q642 1309 613 1323T551
1370Z" />
<glyph unicode="&#xf6;" glyph-name="odieresis" horiz-adv-x="1109" d="M554 -29Q346 -29 219 124T92 532T218 939T554 1092Q764 1092 890 939T1017 532T891 125T554 -29ZM554 70Q688 70 756 187T824 532T756 876T554 993Q421 993 353 877T285 532T353 187T554
70ZM687 1569T730 1569T804 1535T835 1452Q835 1401 805 1368T730 1335Q684 1335 655 1368T625 1452Q625 1500 656 1534ZM379 1569Q422 1569 453 1535T485 1452Q485 1401 455 1368T379 1335Q334 1335 305 1368T275 1452Q275 1500 306 1534T379 1569Z" />
<glyph unicode="&#xf7;" glyph-name="divide" horiz-adv-x="1544" d="M195 723H1349V561H195V723ZM652 216T652 272T687 367T772 406T857 367T892 272Q892 217 857 178T772 139Q721 139 687 177ZM652 1012Q652 1068 687 1106T772 1145T857 1106T892 1012Q892 956
857 918T772 879Q721 879 687 917T652 1012Z" />
<glyph unicode="&#xf8;" glyph-name="oslash" horiz-adv-x="1109" d="M904 922Q959 848 988 749T1017 532Q1017 278 891 125T554 -29Q470 -29 398 -3T266 78L137 -94L68 -31L202 147Q148 224 120 320T92 532Q92 786 218 939T554 1092Q639 1092 711 1067T841 991L966
1157L1034 1094L904 922ZM352 190Q388 129 438 100T554 70Q687 70 755 187T824 532Q824 608 817 668T796 780L352 190ZM756 879Q722 936 672 964T554 993Q422 993 354 876T285 532Q285 460 292 401T311 293L756 879Z" />
<glyph unicode="&#xf9;" glyph-name="ugrave" horiz-adv-x="1187" d="M652 1063H962V106H1119V0H796V188Q751 82 678 27T508 -29Q349 -29 274 71T199 387V956H50V1063H365V444Q365 250 408 178T561 106Q676 106 736 200T796 473V956H652V1063ZM395 1636L629 1260H524L218
1636H395Z" />
<glyph unicode="&#xfa;" glyph-name="uacute" horiz-adv-x="1187" d="M652 1063H962V106H1119V0H796V188Q751 82 678 27T508 -29Q349 -29 274 71T199 387V956H50V1063H365V444Q365 250 408 178T561 106Q676 106 736 200T796 473V956H652V1063ZM651 1638H830L524
1262H419L651 1638Z" />
<glyph unicode="&#xfb;" glyph-name="ucircumflex" horiz-adv-x="1187" d="M652 1063H962V106H1119V0H796V188Q751 82 678 27T508 -29Q349 -29 274 71T199 387V956H50V1063H365V444Q365 250 408 178T561 106Q676 106 736 200T796 473V956H652V1063ZM450 1638H601L813
1262H709L526 1522L343 1262H239L450 1638Z" />
<glyph unicode="&#xfc;" glyph-name="udieresis" horiz-adv-x="1187" d="M652 1063H962V106H1119V0H796V188Q751 82 678 27T508 -29Q349 -29 274 71T199 387V956H50V1063H365V444Q365 250 408 178T561 106Q676 106 736 200T796 473V956H652V1063ZM658 1569T701
1569T775 1535T806 1452Q806 1401 776 1368T701 1335Q655 1335 626 1368T596 1452Q596 1500 627 1534ZM350 1569Q393 1569 424 1535T456 1452Q456 1401 426 1368T350 1335Q305 1335 276 1368T246 1452Q246 1500 277 1534T350 1569Z" />
<glyph unicode="&#xff;" glyph-name="ydieresis" horiz-adv-x="1041" d="M398 -195L461 -18L104 956H-5V1063H435V956H282L551 225L820 956H677V1063H1036V956H929L490 -240Q446 -364 391 -409T236 -455Q194 -455 149 -447T59 -424V-221H144Q149 -289 175 -318T255
-348Q304 -348 334 -318T398 -195ZM654 1569T697 1569T771 1535T802 1452Q802 1401 772 1368T697 1335Q651 1335 622 1368T592 1452Q592 1500 623 1534ZM346 1569Q389 1569 420 1535T452 1452Q452 1401 422 1368T346 1335Q301 1335 272 1368T242 1452Q242 1500
273 1534T346 1569Z" />
<glyph unicode="&#x131;" glyph-name="dotlessi" horiz-adv-x="589" d="M391 106H547V0H67V106H225V956H67V1063H391V106Z" />
<glyph unicode="&#x152;" glyph-name="OE" horiz-adv-x="2096" d="M1948 0H842Q496 0 302 198T107 750Q107 1101 301 1297T842 1493H1933V1161H1822V1370H1205V870H1648V1057H1757V561H1648V748H1205V123H1838V332H1948V0ZM1023 106V1386H855Q592 1386 453 1222T313
750Q313 439 453 273T855 106H1023Z" />
<glyph unicode="&#x153;" glyph-name="oe" horiz-adv-x="1822" d="M1535 618Q1530 804 1465 898T1277 993Q1163 993 1097 898T1017 618H1535ZM1731 512H1017V504Q1017 289 1090 180T1305 70Q1414 70 1483 133T1581 322H1714Q1675 147 1569 59T1289 -29Q1172 -29
1079 20T920 166Q858 70 765 21T554 -29Q346 -29 219 124T92 532T218 939T554 1092Q673 1092 766 1043T922 897Q987 993 1077 1042T1277 1092Q1495 1092 1610 944T1731 512ZM554 70Q688 70 756 187T824 532T756 876T554 993Q421 993 353 877T285 532T353 187T554
70Z" />
<glyph unicode="&#x178;" glyph-name="Ydieresis" horiz-adv-x="1216" d="M390 1884T433 1884T507 1849T538 1768Q538 1718 508 1685T433 1651Q389 1651 359 1684T328 1768Q328 1814 359 1849ZM784 1884Q826 1884 857 1849T888 1768Q888 1718 858 1685T784 1651Q739
1651 709 1684T678 1768Q678 1814 709 1849T784 1884ZM348 0V106H520V643L105 1386H-21V1493H479V1386H322L658 782L994 1386H842V1493H1233V1386H1106L702 662V106H874V0H348Z" />
<glyph unicode="&#x192;" glyph-name="florin" horiz-adv-x="682" d="M793 1305H706Q706 1326 702 1345Q694 1391 668 1419Q630 1458 559 1458Q466 1458 428 1402Q391 1345 391 1200V1063H658V956H391V-19Q391 -197 308 -288Q224 -379 63 -379Q3 -379 -57 -367T-177
-330V-128H-90Q-90 -149 -86 -168Q-78 -214 -52 -242Q-14 -281 57 -281Q149 -281 187 -224Q225 -168 225 -19V956H67V1063H225V1196Q225 1374 308 1465Q392 1556 553 1556Q613 1556 673 1544T793 1507V1305Z" />
<glyph unicode="&#x2c6;" glyph-name="circumflex" horiz-adv-x="921" d="M385 1638H536L748 1262H644L461 1522L278 1262H174L385 1638Z" />
<glyph unicode="&#x2c7;" glyph-name="caron" horiz-adv-x="921" d="M385 1262L174 1638H278L461 1378L644 1638H748L536 1262H385Z" />
<glyph unicode="&#x2d8;" glyph-name="breve" horiz-adv-x="921" d="M179 1608H266Q277 1529 324 1494T461 1458T597 1493T656 1608H742Q734 1465 663 1393T461 1321Q330 1321 259 1393T179 1608Z" />
<glyph unicode="&#x2d9;" glyph-name="dotaccent" horiz-adv-x="921" d="M418 1569T461 1569T535 1535T566 1452Q566 1401 537 1368T461 1335T386 1368T356 1452Q356 1500 387 1534Z" />
<glyph unicode="&#x2da;" glyph-name="ring" horiz-adv-x="921" d="M598 1524Q598 1587 558 1631T461 1675Q402 1675 363 1632T324 1524Q324 1459 363 1416T461 1372Q518 1372 558 1416T598 1524ZM707 1639T707 1524T636 1329T461 1249Q357 1249 286 1329T214
1524T285 1718T461 1798Q564 1798 635 1719Z" />
<glyph unicode="&#x2db;" glyph-name="ogonek" horiz-adv-x="921" d="M415 0H500L499 -2Q420 -125 420 -172Q420 -218 450 -246T531 -274Q555 -274 581 -268T634 -248V-375Q601 -384 571 -388T512 -393Q410 -393 355 -349T299 -223Q299 -174 326 -122T415 0Z" />
<glyph unicode="&#x2dc;" glyph-name="tilde" horiz-adv-x="921" d="M457 1370L406 1425Q382 1449 368 1456T336 1464Q298 1464 277 1425T250 1309H164Q166 1444 211 1517T339 1591Q374 1591 402 1577T464 1530L516 1475Q536 1452 551 1444T586 1436Q625 1436
646 1476T671 1591H758Q756 1456 710 1383T582 1309Q548 1309 519 1323T457 1370Z" />
<glyph unicode="&#x2dd;" glyph-name="hungarumlaut" horiz-adv-x="921" d="M686 1638H846L588 1262H483L686 1638ZM389 1638H542L322 1262H220L389 1638Z" />
<glyph unicode="&#x3a9;" glyph-name="Omega" horiz-adv-x="1528" d="M1008 164H1310V301H1416V0H883V182Q1045 252 1128 407T1211 795Q1211 1074 1088 1243T765 1413T442 1244T319 795Q319 562 401 407T645 182V0H114V301H220V164H520Q332 251 222 427T112 817Q112
968 164 1099T315 1333Q404 1424 519 1472T765 1520T1010 1472Q1124 1425 1213 1333Q1313 1230 1366 1098Q1418 967 1418 817Q1418 604 1308 428T1008 164Z" />
<glyph unicode="&#x3c0;" glyph-name="pi" horiz-adv-x="1211" d="M76 0V106H225V956H67V1063H1145V956H988V106H1136V0H679V106H822V956H391V106H535V0H76Z" />
<glyph unicode="&#x2013;" glyph-name="endash" horiz-adv-x="921" d="M81 610H841V477H81V610Z" />
<glyph unicode="&#x2014;" glyph-name="emdash" horiz-adv-x="1843" d="M81 610H1762V477H81V610Z" />
<glyph unicode="&#x2018;" glyph-name="quoteleft" horiz-adv-x="585" d="M494 1440Q425 1376 394 1291T363 1077V1014H188Q189 1188 245 1308T424 1520L494 1440Z" />
<glyph unicode="&#x2019;" glyph-name="quoteright" horiz-adv-x="585" d="M130 1067Q201 1130 232 1216T264 1432V1493H438Q437 1320 381 1199T201 987L130 1067Z" />
<glyph unicode="&#x201a;" glyph-name="quotesinglbase" horiz-adv-x="585" d="M81 -199Q166 -130 205 -37T245 190V227H422Q415 56 350 -66T153 -279L81 -199Z" />
<glyph unicode="&#x201c;" glyph-name="quotedblleft" horiz-adv-x="942" d="M494 1440Q425 1376 394 1291T363 1077V1014H188Q189 1188 245 1308T424 1520L494 1440ZM850 1440Q781 1376 750 1291T719 1077V1014H544Q545 1189 601 1309T779 1520L850 1440Z" />
<glyph unicode="&#x201d;" glyph-name="quotedblright" horiz-adv-x="942" d="M489 1067Q557 1130 588 1215T619 1430V1493H794Q793 1318 737 1198T559 987L489 1067ZM130 1067Q201 1130 232 1216T264 1432V1493H438Q437 1320 381 1199T201 987L130 1067Z" />
<glyph unicode="&#x201e;" glyph-name="quotedblbase" horiz-adv-x="954" d="M436 -199Q522 -130 561 -37T601 190V227H778Q771 56 706 -66T508 -279L436 -199ZM81 -199Q166 -130 205 -37T245 190V227H422Q415 56 350 -66T153 -279L81 -199Z" />
<glyph unicode="&#x2020;" glyph-name="dagger" horiz-adv-x="921" d="M380 1493H542L510 1051L870 1079V913L510 942L542 -197H380L411 942L51 913V1079L411 1051L380 1493Z" />
<glyph unicode="&#x2021;" glyph-name="daggerdbl" horiz-adv-x="921" d="M380 1493H542L510 1051L870 1079V913L510 942L542 647L510 354L870 383V217L510 246L542 -197H380L411 246L51 217V383L411 354L380 647L411 942L51 913V1079L411 1051L380 1493Z" />
<glyph unicode="&#x2022;" glyph-name="bullet" horiz-adv-x="1087" d="M276 762Q276 886 354 971T545 1057Q657 1057 734 972T811 762Q811 637 734 551T544 465Q431 465 354 551T276 762Z" />
<glyph unicode="&#x2026;" glyph-name="ellipsis" horiz-adv-x="1843" d="M188 48T188 104T222 199T308 238Q357 238 392 199T428 104Q428 49 393 10T308 -29Q256 -29 222 9ZM802 48T802 104T836 199T922 238Q971 238 1006 199T1041 104Q1041 49 1006 10T922 -29Q870
-29 836 9ZM1416 48T1416 104T1450 199T1535 238T1620 199T1655 104Q1655 49 1620 10T1535 -29Q1484 -29 1450 9Z" />
<glyph unicode="&#x2030;" glyph-name="perthousand" horiz-adv-x="2473" d="M411 1520Q554 1520 638 1411T723 1114Q723 925 639 816T411 707T185 816T102 1114Q102 1300 185 1410T411 1520ZM1228 1520H1364L524 -29H387L1228 1520ZM1340 784Q1482 784 1566 674T1650
377T1566 81T1340 -29Q1196 -29 1113 80T1029 377Q1029 565 1113 674T1340 784ZM1340 692Q1261 692 1217 609T1173 377Q1173 230 1218 147T1340 63Q1418 63 1462 146T1506 377T1462 608T1342 692H1340ZM413 1427Q334 1427 290 1344T245 1112Q245 966 290 883T413
799Q490 799 534 882T579 1112Q579 1260 535 1343T413 1427ZM2063 694Q1984 694 1939 610T1894 377Q1894 230 1939 147T2063 63Q2140 63 2184 146T2228 377Q2228 525 2184 609T2063 694ZM2063 784Q2205 784 2288 674T2372 377T2288 81T2063 -29Q1919 -29 1835 80T1751
377Q1751 565 1835 674T2063 784Z" />
<glyph unicode="&#x2039;" glyph-name="guilsinglleft" horiz-adv-x="737" d="M564 1059V944L297 600L564 256V141L142 559V641L564 1059Z" />
<glyph unicode="&#x203a;" glyph-name="guilsinglright" horiz-adv-x="737" d="M174 1059L596 641V559L174 141V256L440 600L174 944V1059Z" />
<glyph unicode="&#x2044;" glyph-name="fraction" horiz-adv-x="307" d="M510 1520H645L-202 -29H-338L510 1520Z" />
<glyph unicode="&#x20ac;" glyph-name="Euro" horiz-adv-x="1172" d="M1023 395Q985 190 881 81T621 -29Q451 -29 329 123T164 539H-7L33 643H155Q154 658 153 682Q151 731 151 745Q151 779 152 803T155 850H-7L33 954H164Q206 1218 328 1369T621 1520Q710 1520
799 1489T1001 1389V1047H905Q887 1227 819 1324T640 1421Q518 1421 444 1302T350 954H804L761 850H345Q344 836 343 813Q341 762 341 745Q341 736 342 702T343 643H680L638 539H350Q371 309 444 190T640 70Q744 70 812 153T904 395H1023Z" />
<glyph unicode="&#x2122;" glyph-name="trademark" horiz-adv-x="1843" d="M218 1493H719V1323H658V1427H520V981H598V915H339V981H417V1427H276V1323H218V1493ZM1006 1493L1163 1223L1326 1493H1523V1427H1445V981H1523V915H1266V981H1344V1407L1156 1096H1117L938
1407V981H1013V915H796V981H874V1427H796V1493H1006Z" />
<glyph unicode="&#x2202;" glyph-name="partialdiff" horiz-adv-x="953" d="M636 494Q636 610 597 672T487 735Q389 735 326 606T262 270Q262 154 300 93T411 31Q509 31 572 161T636 494ZM680 621Q694 708 700 789T707 946Q707 1075 675 1140T577 1206Q527 1206
463 1148T365 1090Q333 1090 312 1112T290 1165Q290 1227 354 1276T510 1325Q672 1325 768 1170T865 752Q865 417 735 196T413 -25Q276 -25 185 83T94 354Q94 552 193 680T438 809Q529 809 587 764T680 621Z" />
<glyph unicode="&#x2206;" glyph-name="increment" horiz-adv-x="1287" d="M46 0L561 1493H716L1229 0H46ZM968 164L591 1253L214 164H968Z" />
<glyph unicode="&#x220f;" glyph-name="product" horiz-adv-x="1467" d="M48 1473H1418V1399H1246V-319H1418V-393H881V-319H1054V1399H411V-319H584V-393H48V-319H220V1399H48V1473Z" />
<glyph unicode="&#x2211;" glyph-name="summation" horiz-adv-x="1315" d="M14 1473H1060L1159 1108H1089L1023 1335Q1013 1369 986 1384T897 1399H276L1004 567V530L262 -205H1058Q1115 -204 1131 -192T1157 -142L1222 88H1292L1159 -393H14V-352L842 463L14 1419V1473Z" />
<glyph unicode="&#x221a;" glyph-name="radical" horiz-adv-x="1174" d="M1004 1661H1174V1565H1071L536 -41H477L190 842L77 797L55 877L310 975L540 266L1004 1661Z" />
<glyph unicode="&#x221e;" glyph-name="infinity" horiz-adv-x="1535" d="M778 483Q714 347 644 284T489 221Q367 221 283 333T199 610Q199 785 274 893T470 1001Q555 1001 622 940T758 737Q819 875 890 940T1048 1006Q1168 1006 1253 893T1338 614Q1338 440 1263
333T1067 225Q982 225 916 283T778 483ZM714 666Q670 754 610 798T473 842Q382 842 325 776T267 604Q267 503 320 436T454 369Q526 369 585 435T714 666ZM824 559Q868 470 928 426T1064 381Q1155 381 1212 448T1270 621Q1270 722 1217 789T1084 856Q1011 856 952
790T824 559Z" />
<glyph unicode="&#x222b;" glyph-name="integral'" horiz-adv-x="960" d="M280 -262Q375 -262 388 426L391 591Q401 1106 486 1328T754 1550Q826 1550 871 1508T916 1401Q916 1347 888 1316T809 1284Q771 1284 746 1303T710 1357Q705 1372 701 1408T682 1444Q586
1444 573 825Q568 572 566 522Q550 40 466 -164Q381 -371 204 -371Q133 -371 88 -330T42 -223Q42 -167 73 -136T158 -104Q188 -104 209 -118T245 -161Q254 -179 258 -220T280 -262Z" />
<glyph unicode="&#x2248;" glyph-name="approxequal" horiz-adv-x="1544" d="M1349 1001V854Q1261 765 1180 724T1013 682Q927 682 770 748L761 752Q752 756 732 764Q599 821 514 821Q431 821 353 785T195 672V819Q286 909 366 950T531 991Q617 991 774 926L783
922Q793 918 811 909Q941 852 1029 852Q1112 852 1191 888T1349 1001ZM1349 612V465Q1260 375 1179 333T1013 291Q931 291 781 354Q768 360 760 363Q752 367 732 375Q599 432 514 432Q431 432 353 396T195 283V430Q286 520 366 561T531 602Q617 602 774 536L783
532Q793 529 811 520Q941 463 1029 463Q1112 463 1191 499T1349 612Z" />
<glyph unicode="&#x2260;" glyph-name="notequal" horiz-adv-x="1544" d="M195 926H890L1120 1245L1233 1143L1076 926H1349V766H953L778 518H1349V358H652L420 39L308 141L464 358H195V518H590L765 766H195V926Z" />
<glyph unicode="&#x2264;" glyph-name="lessequal" horiz-adv-x="1544" d="M195 156H1349V0H195V156ZM1349 1026L400 739L1349 453V287L195 655V825L1349 1192V1026Z" />
<glyph unicode="&#x2265;" glyph-name="greaterequal" horiz-adv-x="1544" d="M195 1026V1192L1349 825V655L195 287V453L1145 739L195 1026ZM1349 156V0H195V156H1349Z" />
<glyph unicode="&#x25ca;" glyph-name="lozenge" horiz-adv-x="910" d="M455 1653L905 592L455 -477L5 592L455 1653ZM455 1409L109 592L455 -233L802 592L455 1409Z" />
<glyph unicode="&#xfb01;" glyph-name="fi" horiz-adv-x="1229" d="M964 1286L879 1287Q877 1373 822 1415T656 1458Q518 1458 455 1387T391 1163V1063H1030V106H1187V0H706V106H865V956H391V106H547V0H67V106H225V956H67V1063H225V1159Q225 1356 330 1456T642
1556Q720 1556 802 1543T964 1503V1286Z" />
<glyph unicode="&#xfb02;" glyph-name="fl" horiz-adv-x="1229" d="M660 1556H1017V106H1174V0H693V106H851V1450H658Q511 1450 451 1385T391 1163V1063H656V956H391V106H547V0H67V106H225V956H67V1063H225V1159Q225 1360 332 1458T660 1556Z" />
</font>
</defs>
</svg>
